<?xml version="1.0" encoding="UTF-8"?><svg xmlns="http://www.w3.org/2000/svg" xmlns:xlink="http://www.w3.org/1999/xlink" height="830pt" style="width:1468px;height:830px;" version="1.1" viewBox="0 0 1468 830" width="1468pt">
    <defs>
        <filter height="300%" id="f1" width="300%" x="-1" y="-1">
            <feGaussianBlur result="blurOut" stdDeviation="2.0"/>
            <feColorMatrix in="blurOut" result="blurOut2" type="matrix" values="0 0 0 0 0 0 0 0 0 0 0 0 0 0 0 0 0 0 .4 0"/>
            <feOffset dx="4.0" dy="4.0" in="blurOut2" result="blurOut3"/>
            <feBlend in="SourceGraphic" in2="blurOut3" mode="normal"/>
        </filter>
    </defs>
    <g>
        <polygon fill="#FFFFFF" filter="url(#f1)" points="847,510.5,922,510.5,929,534.1094,1119,534.1094,1119,823,847,823,847,510.5" style="stroke: #000000; stroke-width: 2.0;"/>
        <line style="stroke: #000000; stroke-width: 2.0;" x1="847" x2="929" y1="534.1094" y2="534.1094"/>
        <text fill="#000000" font-family="sans-serif" font-size="14" font-weight="bold" lengthAdjust="spacingAndGlyphs" textLength="69" x="850" y="528.0332">Character</text>
        <polygon fill="#FFFFFF" filter="url(#f1)" points="436,377.5,513,377.5,520,401.1094,722,401.1094,722,594.5,436,594.5,436,377.5" style="stroke: #000000; stroke-width: 2.0;"/>
        <line style="stroke: #000000; stroke-width: 2.0;" x1="436" x2="520" y1="401.1094" y2="401.1094"/>
        <text fill="#000000" font-family="sans-serif" font-size="14" font-weight="bold" lengthAdjust="spacingAndGlyphs" textLength="71" x="439" y="395.0332">Controller</text>
        <polygon fill="#FFFFFF" filter="url(#f1)" points="1127,631,1163,631,1170,654.6094,1461,654.6094,1461,823,1127,823,1127,631" style="stroke: #000000; stroke-width: 2.0;"/>
        <line style="stroke: #000000; stroke-width: 2.0;" x1="1127" x2="1170" y1="654.6094" y2="654.6094"/>
        <text fill="#000000" font-family="sans-serif" font-size="14" font-weight="bold" lengthAdjust="spacingAndGlyphs" textLength="30" x="1130" y="648.5332">Item</text>
        <polygon fill="#FFFFFF" filter="url(#f1)" points="14,16,117,16,124,39.6094,336,39.6094,336,469.5,14,469.5,14,16" style="stroke: #000000; stroke-width: 2.0;"/>
        <line style="stroke: #000000; stroke-width: 2.0;" x1="14" x2="124" y1="39.6094" y2="39.6094"/>
        <text fill="#000000" font-family="sans-serif" font-size="14" font-weight="bold" lengthAdjust="spacingAndGlyphs" textLength="97" x="17" y="33.5332">Statemanager</text>
        <polygon fill="#FFFFFF" filter="url(#f1)" points="22,257,72,257,79,280.6094,328,280.6094,328,461.5,22,461.5,22,257" style="stroke: #000000; stroke-width: 2.0;"/>
        <line style="stroke: #000000; stroke-width: 2.0;" x1="22" x2="79" y1="280.6094" y2="280.6094"/>
        <text fill="#000000" font-family="sans-serif" font-size="14" font-weight="bold" lengthAdjust="spacingAndGlyphs" textLength="44" x="25" y="274.5332">States</text>
        <rect fill="#FEFECE" filter="url(#f1)" height="48" style="stroke: #A80036; stroke-width: 1.5;" width="64" x="888" y="767"/>
        <ellipse cx="903" cy="783" fill="#ADD1B2" rx="11" ry="11" style="stroke: #A80036; stroke-width: 1.0;"/>
        <path d="M905.7656,778.875 Q905.9219,778.6563 906.1094,778.5469 Q906.2969,778.4375 906.5156,778.4375 Q906.8906,778.4375 907.125,778.6953 Q907.3594,778.9531 907.3594,779.5625 L907.3594,781.0156 Q907.3594,781.625 907.125,781.8906 Q906.8906,782.1563 906.5156,782.1563 Q906.1719,782.1563 905.9688,781.9531 Q905.7656,781.7656 905.6563,781.25 Q905.6094,780.8906 905.4219,780.7031 Q905.0938,780.3281 904.4844,780.1094 Q903.875,779.8906 903.25,779.8906 Q902.4844,779.8906 901.8516,780.2188 Q901.2188,780.5469 900.7266,781.2969 Q900.2344,782.0469 900.2344,783.0781 L900.2344,784.1719 Q900.2344,785.4063 901.125,786.2266 Q902.0156,787.0469 903.6094,787.0469 Q904.5469,787.0469 905.2031,786.7969 Q905.5938,786.6406 906.0156,786.2031 Q906.2813,785.9375 906.4297,785.8594 Q906.5781,785.7813 906.7813,785.7813 Q907.1094,785.7813 907.3672,786.0391 Q907.625,786.2969 907.625,786.6406 Q907.625,786.9844 907.2813,787.3906 Q906.7813,787.9688 905.9844,788.2969 Q904.9063,788.75 903.6094,788.75 Q902.0938,788.75 900.8906,788.125 Q899.9063,787.625 899.2188,786.5547 Q898.5313,785.4844 898.5313,784.2031 L898.5313,783.0469 Q898.5313,781.7188 899.1484,780.5703 Q899.7656,779.4219 900.8594,778.8047 Q901.9531,778.1875 903.1875,778.1875 Q903.9219,778.1875 904.5703,778.3516 Q905.2188,778.5156 905.7656,778.875 Z "/>
        <text fill="#000000" font-family="sans-serif" font-size="12" lengthAdjust="spacingAndGlyphs" textLength="32" x="917" y="787.9102">Attack</text>
        <line style="stroke: #A80036; stroke-width: 1.5;" x1="889" x2="951" y1="799" y2="799"/>
        <line style="stroke: #A80036; stroke-width: 1.5;" x1="889" x2="951" y1="807" y2="807"/>
        <rect fill="#FEFECE" filter="url(#f1)" height="48" style="stroke: #A80036; stroke-width: 1.5;" width="79" x="987.5" y="767"/>
        <ellipse cx="1002.5" cy="783" fill="#ADD1B2" rx="11" ry="11" style="stroke: #A80036; stroke-width: 1.0;"/>
        <path d="M1005.2656,778.875 Q1005.4219,778.6563 1005.6094,778.5469 Q1005.7969,778.4375 1006.0156,778.4375 Q1006.3906,778.4375 1006.625,778.6953 Q1006.8594,778.9531 1006.8594,779.5625 L1006.8594,781.0156 Q1006.8594,781.625 1006.625,781.8906 Q1006.3906,782.1563 1006.0156,782.1563 Q1005.6719,782.1563 1005.4688,781.9531 Q1005.2656,781.7656 1005.1563,781.25 Q1005.1094,780.8906 1004.9219,780.7031 Q1004.5938,780.3281 1003.9844,780.1094 Q1003.375,779.8906 1002.75,779.8906 Q1001.9844,779.8906 1001.3516,780.2188 Q1000.7188,780.5469 1000.2266,781.2969 Q999.7344,782.0469 999.7344,783.0781 L999.7344,784.1719 Q999.7344,785.4063 1000.625,786.2266 Q1001.5156,787.0469 1003.1094,787.0469 Q1004.0469,787.0469 1004.7031,786.7969 Q1005.0938,786.6406 1005.5156,786.2031 Q1005.7813,785.9375 1005.9297,785.8594 Q1006.0781,785.7813 1006.2813,785.7813 Q1006.6094,785.7813 1006.8672,786.0391 Q1007.125,786.2969 1007.125,786.6406 Q1007.125,786.9844 1006.7813,787.3906 Q1006.2813,787.9688 1005.4844,788.2969 Q1004.4063,788.75 1003.1094,788.75 Q1001.5938,788.75 1000.3906,788.125 Q999.4063,787.625 998.7188,786.5547 Q998.0313,785.4844 998.0313,784.2031 L998.0313,783.0469 Q998.0313,781.7188 998.6484,780.5703 Q999.2656,779.4219 1000.3594,778.8047 Q1001.4531,778.1875 1002.6875,778.1875 Q1003.4219,778.1875 1004.0703,778.3516 Q1004.7188,778.5156 1005.2656,778.875 Z "/>
        <text fill="#000000" font-family="sans-serif" font-size="12" lengthAdjust="spacingAndGlyphs" textLength="47" x="1016.5" y="787.9102">Defense</text>
        <line style="stroke: #A80036; stroke-width: 1.5;" x1="988.5" x2="1065.5" y1="799" y2="799"/>
        <line style="stroke: #A80036; stroke-width: 1.5;" x1="988.5" x2="1065.5" y1="807" y2="807"/>
        <rect fill="#FEFECE" filter="url(#f1)" height="48" style="stroke: #A80036; stroke-width: 1.5;" width="70" x="855" y="659"/>
        <ellipse cx="870" cy="675" fill="#ADD1B2" rx="11" ry="11" style="stroke: #A80036; stroke-width: 1.0;"/>
        <path d="M872.7656,670.875 Q872.9219,670.6563 873.1094,670.5469 Q873.2969,670.4375 873.5156,670.4375 Q873.8906,670.4375 874.125,670.6953 Q874.3594,670.9531 874.3594,671.5625 L874.3594,673.0156 Q874.3594,673.625 874.125,673.8906 Q873.8906,674.1563 873.5156,674.1563 Q873.1719,674.1563 872.9688,673.9531 Q872.7656,673.7656 872.6563,673.25 Q872.6094,672.8906 872.4219,672.7031 Q872.0938,672.3281 871.4844,672.1094 Q870.875,671.8906 870.25,671.8906 Q869.4844,671.8906 868.8516,672.2188 Q868.2188,672.5469 867.7266,673.2969 Q867.2344,674.0469 867.2344,675.0781 L867.2344,676.1719 Q867.2344,677.4063 868.125,678.2266 Q869.0156,679.0469 870.6094,679.0469 Q871.5469,679.0469 872.2031,678.7969 Q872.5938,678.6406 873.0156,678.2031 Q873.2813,677.9375 873.4297,677.8594 Q873.5781,677.7813 873.7813,677.7813 Q874.1094,677.7813 874.3672,678.0391 Q874.625,678.2969 874.625,678.6406 Q874.625,678.9844 874.2813,679.3906 Q873.7813,679.9688 872.9844,680.2969 Q871.9063,680.75 870.6094,680.75 Q869.0938,680.75 867.8906,680.125 Q866.9063,679.625 866.2188,678.5547 Q865.5313,677.4844 865.5313,676.2031 L865.5313,675.0469 Q865.5313,673.7188 866.1484,672.5703 Q866.7656,671.4219 867.8594,670.8047 Q868.9531,670.1875 870.1875,670.1875 Q870.9219,670.1875 871.5703,670.3516 Q872.2188,670.5156 872.7656,670.875 Z "/>
        <text fill="#000000" font-family="sans-serif" font-size="12" lengthAdjust="spacingAndGlyphs" textLength="38" x="884" y="679.9102">Enemy</text>
        <line style="stroke: #A80036; stroke-width: 1.5;" x1="856" x2="924" y1="691" y2="691"/>
        <line style="stroke: #A80036; stroke-width: 1.5;" x1="856" x2="924" y1="699" y2="699"/>
        <rect fill="#FEFECE" filter="url(#f1)" height="48" style="stroke: #A80036; stroke-width: 1.5;" width="112" x="903" y="538.5"/>
        <ellipse cx="918" cy="554.5" fill="#ADD1B2" rx="11" ry="11" style="stroke: #A80036; stroke-width: 1.0;"/>
        <path d="M920.7656,550.375 Q920.9219,550.1563 921.1094,550.0469 Q921.2969,549.9375 921.5156,549.9375 Q921.8906,549.9375 922.125,550.1953 Q922.3594,550.4531 922.3594,551.0625 L922.3594,552.5156 Q922.3594,553.125 922.125,553.3906 Q921.8906,553.6563 921.5156,553.6563 Q921.1719,553.6563 920.9688,553.4531 Q920.7656,553.2656 920.6563,552.75 Q920.6094,552.3906 920.4219,552.2031 Q920.0938,551.8281 919.4844,551.6094 Q918.875,551.3906 918.25,551.3906 Q917.4844,551.3906 916.8516,551.7188 Q916.2188,552.0469 915.7266,552.7969 Q915.2344,553.5469 915.2344,554.5781 L915.2344,555.6719 Q915.2344,556.9063 916.125,557.7266 Q917.0156,558.5469 918.6094,558.5469 Q919.5469,558.5469 920.2031,558.2969 Q920.5938,558.1406 921.0156,557.7031 Q921.2813,557.4375 921.4297,557.3594 Q921.5781,557.2813 921.7813,557.2813 Q922.1094,557.2813 922.3672,557.5391 Q922.625,557.7969 922.625,558.1406 Q922.625,558.4844 922.2813,558.8906 Q921.7813,559.4688 920.9844,559.7969 Q919.9063,560.25 918.6094,560.25 Q917.0938,560.25 915.8906,559.625 Q914.9063,559.125 914.2188,558.0547 Q913.5313,556.9844 913.5313,555.7031 L913.5313,554.5469 Q913.5313,553.2188 914.1484,552.0703 Q914.7656,550.9219 915.8594,550.3047 Q916.9531,549.6875 918.1875,549.6875 Q918.9219,549.6875 919.5703,549.8516 Q920.2188,550.0156 920.7656,550.375 Z "/>
        <text fill="#000000" font-family="sans-serif" font-size="12" lengthAdjust="spacingAndGlyphs" textLength="80" x="932" y="559.4102">RPGCharacter</text>
        <line style="stroke: #A80036; stroke-width: 1.5;" x1="904" x2="1014" y1="570.5" y2="570.5"/>
        <line style="stroke: #A80036; stroke-width: 1.5;" x1="904" x2="1014" y1="578.5" y2="578.5"/>
        <rect fill="#FEFECE" filter="url(#f1)" height="48" style="stroke: #A80036; stroke-width: 1.5;" width="56" x="960" y="659"/>
        <ellipse cx="975" cy="675" fill="#B4A7E5" rx="11" ry="11" style="stroke: #A80036; stroke-width: 1.0;"/>
        <path d="M975.9531,671.6406 L975.9531,678.2969 L977.6719,678.2969 Q978.2813,678.2969 978.5469,678.5313 Q978.8125,678.7656 978.8125,679.1563 Q978.8125,679.5313 978.5469,679.7656 Q978.2813,680 977.6719,680 L972.5313,680 Q971.9219,680 971.6563,679.7656 Q971.3906,679.5313 971.3906,679.1406 Q971.3906,678.7656 971.6563,678.5313 Q971.9219,678.2969 972.5313,678.2969 L974.25,678.2969 L974.25,671.6406 L972.5313,671.6406 Q971.9219,671.6406 971.6563,671.4063 Q971.3906,671.1719 971.3906,670.7813 Q971.3906,670.4063 971.6563,670.1719 Q971.9219,669.9375 972.5313,669.9375 L977.6719,669.9375 Q978.2813,669.9375 978.5469,670.1719 Q978.8125,670.4063 978.8125,670.7813 Q978.8125,671.1719 978.5469,671.4063 Q978.2813,671.6406 977.6719,671.6406 L975.9531,671.6406 Z "/>
        <text fill="#000000" font-family="sans-serif" font-size="12" font-style="italic" lengthAdjust="spacingAndGlyphs" textLength="24" x="989" y="679.9102">Skill</text>
        <line style="stroke: #A80036; stroke-width: 1.5;" x1="961" x2="1015" y1="691" y2="691"/>
        <line style="stroke: #A80036; stroke-width: 1.5;" x1="961" x2="1015" y1="699" y2="699"/>
        <rect fill="#FEFECE" filter="url(#f1)" height="48" style="stroke: #A80036; stroke-width: 1.5;" width="60" x="1051" y="659"/>
        <ellipse cx="1066" cy="675" fill="#EB937F" rx="11" ry="11" style="stroke: #A80036; stroke-width: 1.0;"/>
        <path d="M1064.8594,675.7969 L1064.8594,678.2969 L1069.1875,678.2969 L1069.1875,677.375 Q1069.1875,676.7656 1069.4297,676.5 Q1069.6719,676.2344 1070.0469,676.2344 Q1070.4219,676.2344 1070.6563,676.5 Q1070.8906,676.7656 1070.8906,677.375 L1070.8906,680 L1062.8906,680 Q1062.2656,680 1062.0078,679.7656 Q1061.75,679.5313 1061.75,679.1406 Q1061.75,678.7656 1062.0156,678.5313 Q1062.2813,678.2969 1062.8906,678.2969 L1063.1563,678.2969 L1063.1563,671.6406 L1062.8906,671.6406 Q1062.2656,671.6406 1062.0078,671.4063 Q1061.75,671.1719 1061.75,670.7813 Q1061.75,670.4063 1062.0078,670.1719 Q1062.2656,669.9375 1062.8906,669.9375 L1070.5156,669.9375 L1070.5156,672.5313 Q1070.5156,673.1406 1070.2891,673.3984 Q1070.0625,673.6563 1069.6719,673.6563 Q1069.2969,673.6563 1069.0625,673.3984 Q1068.8281,673.1406 1068.8281,672.5313 L1068.8281,671.6406 L1064.8594,671.6406 L1064.8594,674.0938 L1066.3438,674.0938 Q1066.3438,673.4375 1066.4688,673.25 Q1066.7344,672.8438 1067.2031,672.8438 Q1067.5781,672.8438 1067.8125,673.1016 Q1068.0469,673.3594 1068.0469,673.9688 L1068.0469,675.9375 Q1068.0469,676.4844 1067.9219,676.6719 Q1067.6563,677.0625 1067.2031,677.0625 Q1066.7344,677.0625 1066.4688,676.6563 Q1066.3438,676.4688 1066.3438,675.7969 L1064.8594,675.7969 Z "/>
        <text fill="#000000" font-family="sans-serif" font-size="12" lengthAdjust="spacingAndGlyphs" textLength="28" x="1080" y="679.9102">Stats</text>
        <line style="stroke: #A80036; stroke-width: 1.5;" x1="1052" x2="1110" y1="691" y2="691"/>
        <line style="stroke: #A80036; stroke-width: 1.5;" x1="1052" x2="1110" y1="699" y2="699"/>
        <rect fill="#FEFECE" filter="url(#f1)" height="48" style="stroke: #A80036; stroke-width: 1.5;" width="86" x="540" y="405.5"/>
        <ellipse cx="555" cy="421.5" fill="#ADD1B2" rx="11" ry="11" style="stroke: #A80036; stroke-width: 1.0;"/>
        <path d="M557.7656,417.375 Q557.9219,417.1563 558.1094,417.0469 Q558.2969,416.9375 558.5156,416.9375 Q558.8906,416.9375 559.125,417.1953 Q559.3594,417.4531 559.3594,418.0625 L559.3594,419.5156 Q559.3594,420.125 559.125,420.3906 Q558.8906,420.6563 558.5156,420.6563 Q558.1719,420.6563 557.9688,420.4531 Q557.7656,420.2656 557.6563,419.75 Q557.6094,419.3906 557.4219,419.2031 Q557.0938,418.8281 556.4844,418.6094 Q555.875,418.3906 555.25,418.3906 Q554.4844,418.3906 553.8516,418.7188 Q553.2188,419.0469 552.7266,419.7969 Q552.2344,420.5469 552.2344,421.5781 L552.2344,422.6719 Q552.2344,423.9063 553.125,424.7266 Q554.0156,425.5469 555.6094,425.5469 Q556.5469,425.5469 557.2031,425.2969 Q557.5938,425.1406 558.0156,424.7031 Q558.2813,424.4375 558.4297,424.3594 Q558.5781,424.2813 558.7813,424.2813 Q559.1094,424.2813 559.3672,424.5391 Q559.625,424.7969 559.625,425.1406 Q559.625,425.4844 559.2813,425.8906 Q558.7813,426.4688 557.9844,426.7969 Q556.9063,427.25 555.6094,427.25 Q554.0938,427.25 552.8906,426.625 Q551.9063,426.125 551.2188,425.0547 Q550.5313,423.9844 550.5313,422.7031 L550.5313,421.5469 Q550.5313,420.2188 551.1484,419.0703 Q551.7656,417.9219 552.8594,417.3047 Q553.9531,416.6875 555.1875,416.6875 Q555.9219,416.6875 556.5703,416.8516 Q557.2188,417.0156 557.7656,417.375 Z "/>
        <text fill="#000000" font-family="sans-serif" font-size="12" lengthAdjust="spacingAndGlyphs" textLength="54" x="569" y="426.4102">Controller</text>
        <line style="stroke: #A80036; stroke-width: 1.5;" x1="541" x2="625" y1="437.5" y2="437.5"/>
        <line style="stroke: #A80036; stroke-width: 1.5;" x1="541" x2="625" y1="445.5" y2="445.5"/>
        <rect fill="#FEFECE" filter="url(#f1)" height="48" style="stroke: #A80036; stroke-width: 1.5;" width="76" x="444" y="538.5"/>
        <ellipse cx="459" cy="554.5" fill="#ADD1B2" rx="11" ry="11" style="stroke: #A80036; stroke-width: 1.0;"/>
        <path d="M461.7656,550.375 Q461.9219,550.1563 462.1094,550.0469 Q462.2969,549.9375 462.5156,549.9375 Q462.8906,549.9375 463.125,550.1953 Q463.3594,550.4531 463.3594,551.0625 L463.3594,552.5156 Q463.3594,553.125 463.125,553.3906 Q462.8906,553.6563 462.5156,553.6563 Q462.1719,553.6563 461.9688,553.4531 Q461.7656,553.2656 461.6563,552.75 Q461.6094,552.3906 461.4219,552.2031 Q461.0938,551.8281 460.4844,551.6094 Q459.875,551.3906 459.25,551.3906 Q458.4844,551.3906 457.8516,551.7188 Q457.2188,552.0469 456.7266,552.7969 Q456.2344,553.5469 456.2344,554.5781 L456.2344,555.6719 Q456.2344,556.9063 457.125,557.7266 Q458.0156,558.5469 459.6094,558.5469 Q460.5469,558.5469 461.2031,558.2969 Q461.5938,558.1406 462.0156,557.7031 Q462.2813,557.4375 462.4297,557.3594 Q462.5781,557.2813 462.7813,557.2813 Q463.1094,557.2813 463.3672,557.5391 Q463.625,557.7969 463.625,558.1406 Q463.625,558.4844 463.2813,558.8906 Q462.7813,559.4688 461.9844,559.7969 Q460.9063,560.25 459.6094,560.25 Q458.0938,560.25 456.8906,559.625 Q455.9063,559.125 455.2188,558.0547 Q454.5313,556.9844 454.5313,555.7031 L454.5313,554.5469 Q454.5313,553.2188 455.1484,552.0703 Q455.7656,550.9219 456.8594,550.3047 Q457.9531,549.6875 459.1875,549.6875 Q459.9219,549.6875 460.5703,549.8516 Q461.2188,550.0156 461.7656,550.375 Z "/>
        <text fill="#000000" font-family="sans-serif" font-size="12" lengthAdjust="spacingAndGlyphs" textLength="44" x="473" y="559.4102">Combat</text>
        <line style="stroke: #A80036; stroke-width: 1.5;" x1="445" x2="519" y1="570.5" y2="570.5"/>
        <line style="stroke: #A80036; stroke-width: 1.5;" x1="445" x2="519" y1="578.5" y2="578.5"/>
        <rect fill="#FEFECE" filter="url(#f1)" height="48" style="stroke: #A80036; stroke-width: 1.5;" width="55" x="555.5" y="538.5"/>
        <ellipse cx="570.5" cy="554.5" fill="#ADD1B2" rx="11" ry="11" style="stroke: #A80036; stroke-width: 1.0;"/>
        <path d="M573.2656,550.375 Q573.4219,550.1563 573.6094,550.0469 Q573.7969,549.9375 574.0156,549.9375 Q574.3906,549.9375 574.625,550.1953 Q574.8594,550.4531 574.8594,551.0625 L574.8594,552.5156 Q574.8594,553.125 574.625,553.3906 Q574.3906,553.6563 574.0156,553.6563 Q573.6719,553.6563 573.4688,553.4531 Q573.2656,553.2656 573.1563,552.75 Q573.1094,552.3906 572.9219,552.2031 Q572.5938,551.8281 571.9844,551.6094 Q571.375,551.3906 570.75,551.3906 Q569.9844,551.3906 569.3516,551.7188 Q568.7188,552.0469 568.2266,552.7969 Q567.7344,553.5469 567.7344,554.5781 L567.7344,555.6719 Q567.7344,556.9063 568.625,557.7266 Q569.5156,558.5469 571.1094,558.5469 Q572.0469,558.5469 572.7031,558.2969 Q573.0938,558.1406 573.5156,557.7031 Q573.7813,557.4375 573.9297,557.3594 Q574.0781,557.2813 574.2813,557.2813 Q574.6094,557.2813 574.8672,557.5391 Q575.125,557.7969 575.125,558.1406 Q575.125,558.4844 574.7813,558.8906 Q574.2813,559.4688 573.4844,559.7969 Q572.4063,560.25 571.1094,560.25 Q569.5938,560.25 568.3906,559.625 Q567.4063,559.125 566.7188,558.0547 Q566.0313,556.9844 566.0313,555.7031 L566.0313,554.5469 Q566.0313,553.2188 566.6484,552.0703 Q567.2656,550.9219 568.3594,550.3047 Q569.4531,549.6875 570.6875,549.6875 Q571.4219,549.6875 572.0703,549.8516 Q572.7188,550.0156 573.2656,550.375 Z "/>
        <text fill="#000000" font-family="sans-serif" font-size="12" lengthAdjust="spacingAndGlyphs" textLength="23" x="584.5" y="559.4102">Map</text>
        <line style="stroke: #A80036; stroke-width: 1.5;" x1="556.5" x2="609.5" y1="570.5" y2="570.5"/>
        <line style="stroke: #A80036; stroke-width: 1.5;" x1="556.5" x2="609.5" y1="578.5" y2="578.5"/>
        <rect fill="#FEFECE" filter="url(#f1)" height="48" style="stroke: #A80036; stroke-width: 1.5;" width="68" x="646" y="538.5"/>
        <ellipse cx="661" cy="554.5" fill="#ADD1B2" rx="11" ry="11" style="stroke: #A80036; stroke-width: 1.0;"/>
        <path d="M663.7656,550.375 Q663.9219,550.1563 664.1094,550.0469 Q664.2969,549.9375 664.5156,549.9375 Q664.8906,549.9375 665.125,550.1953 Q665.3594,550.4531 665.3594,551.0625 L665.3594,552.5156 Q665.3594,553.125 665.125,553.3906 Q664.8906,553.6563 664.5156,553.6563 Q664.1719,553.6563 663.9688,553.4531 Q663.7656,553.2656 663.6563,552.75 Q663.6094,552.3906 663.4219,552.2031 Q663.0938,551.8281 662.4844,551.6094 Q661.875,551.3906 661.25,551.3906 Q660.4844,551.3906 659.8516,551.7188 Q659.2188,552.0469 658.7266,552.7969 Q658.2344,553.5469 658.2344,554.5781 L658.2344,555.6719 Q658.2344,556.9063 659.125,557.7266 Q660.0156,558.5469 661.6094,558.5469 Q662.5469,558.5469 663.2031,558.2969 Q663.5938,558.1406 664.0156,557.7031 Q664.2813,557.4375 664.4297,557.3594 Q664.5781,557.2813 664.7813,557.2813 Q665.1094,557.2813 665.3672,557.5391 Q665.625,557.7969 665.625,558.1406 Q665.625,558.4844 665.2813,558.8906 Q664.7813,559.4688 663.9844,559.7969 Q662.9063,560.25 661.6094,560.25 Q660.0938,560.25 658.8906,559.625 Q657.9063,559.125 657.2188,558.0547 Q656.5313,556.9844 656.5313,555.7031 L656.5313,554.5469 Q656.5313,553.2188 657.1484,552.0703 Q657.7656,550.9219 658.8594,550.3047 Q659.9531,549.6875 661.1875,549.6875 Q661.9219,549.6875 662.5703,549.8516 Q663.2188,550.0156 663.7656,550.375 Z "/>
        <text fill="#000000" font-family="sans-serif" font-size="12" lengthAdjust="spacingAndGlyphs" textLength="36" x="675" y="559.4102">Pause</text>
        <line style="stroke: #A80036; stroke-width: 1.5;" x1="647" x2="713" y1="570.5" y2="570.5"/>
        <line style="stroke: #A80036; stroke-width: 1.5;" x1="647" x2="713" y1="578.5" y2="578.5"/>
        <rect fill="#FEFECE" filter="url(#f1)" height="48" style="stroke: #A80036; stroke-width: 1.5;" width="65" x="1135.5" y="767"/>
        <ellipse cx="1150.5" cy="783" fill="#ADD1B2" rx="11" ry="11" style="stroke: #A80036; stroke-width: 1.0;"/>
        <path d="M1153.2656,778.875 Q1153.4219,778.6563 1153.6094,778.5469 Q1153.7969,778.4375 1154.0156,778.4375 Q1154.3906,778.4375 1154.625,778.6953 Q1154.8594,778.9531 1154.8594,779.5625 L1154.8594,781.0156 Q1154.8594,781.625 1154.625,781.8906 Q1154.3906,782.1563 1154.0156,782.1563 Q1153.6719,782.1563 1153.4688,781.9531 Q1153.2656,781.7656 1153.1563,781.25 Q1153.1094,780.8906 1152.9219,780.7031 Q1152.5938,780.3281 1151.9844,780.1094 Q1151.375,779.8906 1150.75,779.8906 Q1149.9844,779.8906 1149.3516,780.2188 Q1148.7188,780.5469 1148.2266,781.2969 Q1147.7344,782.0469 1147.7344,783.0781 L1147.7344,784.1719 Q1147.7344,785.4063 1148.625,786.2266 Q1149.5156,787.0469 1151.1094,787.0469 Q1152.0469,787.0469 1152.7031,786.7969 Q1153.0938,786.6406 1153.5156,786.2031 Q1153.7813,785.9375 1153.9297,785.8594 Q1154.0781,785.7813 1154.2813,785.7813 Q1154.6094,785.7813 1154.8672,786.0391 Q1155.125,786.2969 1155.125,786.6406 Q1155.125,786.9844 1154.7813,787.3906 Q1154.2813,787.9688 1153.4844,788.2969 Q1152.4063,788.75 1151.1094,788.75 Q1149.5938,788.75 1148.3906,788.125 Q1147.4063,787.625 1146.7188,786.5547 Q1146.0313,785.4844 1146.0313,784.2031 L1146.0313,783.0469 Q1146.0313,781.7188 1146.6484,780.5703 Q1147.2656,779.4219 1148.3594,778.8047 Q1149.4531,778.1875 1150.6875,778.1875 Q1151.4219,778.1875 1152.0703,778.3516 Q1152.7188,778.5156 1153.2656,778.875 Z "/>
        <text fill="#000000" font-family="sans-serif" font-size="12" lengthAdjust="spacingAndGlyphs" textLength="33" x="1164.5" y="787.9102">Armor</text>
        <line style="stroke: #A80036; stroke-width: 1.5;" x1="1136.5" x2="1199.5" y1="799" y2="799"/>
        <line style="stroke: #A80036; stroke-width: 1.5;" x1="1136.5" x2="1199.5" y1="807" y2="807"/>
        <rect fill="#FEFECE" filter="url(#f1)" height="48" style="stroke: #A80036; stroke-width: 1.5;" width="104" x="1236" y="767"/>
        <ellipse cx="1251" cy="783" fill="#ADD1B2" rx="11" ry="11" style="stroke: #A80036; stroke-width: 1.0;"/>
        <path d="M1253.7656,778.875 Q1253.9219,778.6563 1254.1094,778.5469 Q1254.2969,778.4375 1254.5156,778.4375 Q1254.8906,778.4375 1255.125,778.6953 Q1255.3594,778.9531 1255.3594,779.5625 L1255.3594,781.0156 Q1255.3594,781.625 1255.125,781.8906 Q1254.8906,782.1563 1254.5156,782.1563 Q1254.1719,782.1563 1253.9688,781.9531 Q1253.7656,781.7656 1253.6563,781.25 Q1253.6094,780.8906 1253.4219,780.7031 Q1253.0938,780.3281 1252.4844,780.1094 Q1251.875,779.8906 1251.25,779.8906 Q1250.4844,779.8906 1249.8516,780.2188 Q1249.2188,780.5469 1248.7266,781.2969 Q1248.2344,782.0469 1248.2344,783.0781 L1248.2344,784.1719 Q1248.2344,785.4063 1249.125,786.2266 Q1250.0156,787.0469 1251.6094,787.0469 Q1252.5469,787.0469 1253.2031,786.7969 Q1253.5938,786.6406 1254.0156,786.2031 Q1254.2813,785.9375 1254.4297,785.8594 Q1254.5781,785.7813 1254.7813,785.7813 Q1255.1094,785.7813 1255.3672,786.0391 Q1255.625,786.2969 1255.625,786.6406 Q1255.625,786.9844 1255.2813,787.3906 Q1254.7813,787.9688 1253.9844,788.2969 Q1252.9063,788.75 1251.6094,788.75 Q1250.0938,788.75 1248.8906,788.125 Q1247.9063,787.625 1247.2188,786.5547 Q1246.5313,785.4844 1246.5313,784.2031 L1246.5313,783.0469 Q1246.5313,781.7188 1247.1484,780.5703 Q1247.7656,779.4219 1248.8594,778.8047 Q1249.9531,778.1875 1251.1875,778.1875 Q1251.9219,778.1875 1252.5703,778.3516 Q1253.2188,778.5156 1253.7656,778.875 Z "/>
        <text fill="#000000" font-family="sans-serif" font-size="12" lengthAdjust="spacingAndGlyphs" textLength="72" x="1265" y="787.9102">Consumable</text>
        <line style="stroke: #A80036; stroke-width: 1.5;" x1="1237" x2="1339" y1="799" y2="799"/>
        <line style="stroke: #A80036; stroke-width: 1.5;" x1="1237" x2="1339" y1="807" y2="807"/>
        <rect fill="#FEFECE" filter="url(#f1)" height="48" style="stroke: #A80036; stroke-width: 1.5;" width="56" x="1203" y="659"/>
        <ellipse cx="1218" cy="675" fill="#ADD1B2" rx="11" ry="11" style="stroke: #A80036; stroke-width: 1.0;"/>
        <path d="M1220.7656,670.875 Q1220.9219,670.6563 1221.1094,670.5469 Q1221.2969,670.4375 1221.5156,670.4375 Q1221.8906,670.4375 1222.125,670.6953 Q1222.3594,670.9531 1222.3594,671.5625 L1222.3594,673.0156 Q1222.3594,673.625 1222.125,673.8906 Q1221.8906,674.1563 1221.5156,674.1563 Q1221.1719,674.1563 1220.9688,673.9531 Q1220.7656,673.7656 1220.6563,673.25 Q1220.6094,672.8906 1220.4219,672.7031 Q1220.0938,672.3281 1219.4844,672.1094 Q1218.875,671.8906 1218.25,671.8906 Q1217.4844,671.8906 1216.8516,672.2188 Q1216.2188,672.5469 1215.7266,673.2969 Q1215.2344,674.0469 1215.2344,675.0781 L1215.2344,676.1719 Q1215.2344,677.4063 1216.125,678.2266 Q1217.0156,679.0469 1218.6094,679.0469 Q1219.5469,679.0469 1220.2031,678.7969 Q1220.5938,678.6406 1221.0156,678.2031 Q1221.2813,677.9375 1221.4297,677.8594 Q1221.5781,677.7813 1221.7813,677.7813 Q1222.1094,677.7813 1222.3672,678.0391 Q1222.625,678.2969 1222.625,678.6406 Q1222.625,678.9844 1222.2813,679.3906 Q1221.7813,679.9688 1220.9844,680.2969 Q1219.9063,680.75 1218.6094,680.75 Q1217.0938,680.75 1215.8906,680.125 Q1214.9063,679.625 1214.2188,678.5547 Q1213.5313,677.4844 1213.5313,676.2031 L1213.5313,675.0469 Q1213.5313,673.7188 1214.1484,672.5703 Q1214.7656,671.4219 1215.8594,670.8047 Q1216.9531,670.1875 1218.1875,670.1875 Q1218.9219,670.1875 1219.5703,670.3516 Q1220.2188,670.5156 1220.7656,670.875 Z "/>
        <text fill="#000000" font-family="sans-serif" font-size="12" lengthAdjust="spacingAndGlyphs" textLength="24" x="1232" y="679.9102">Item</text>
        <line style="stroke: #A80036; stroke-width: 1.5;" x1="1204" x2="1258" y1="691" y2="691"/>
        <line style="stroke: #A80036; stroke-width: 1.5;" x1="1204" x2="1258" y1="699" y2="699"/>
        <rect fill="#FEFECE" filter="url(#f1)" height="48" style="stroke: #A80036; stroke-width: 1.5;" width="78" x="1375" y="767"/>
        <ellipse cx="1390" cy="783" fill="#ADD1B2" rx="11" ry="11" style="stroke: #A80036; stroke-width: 1.0;"/>
        <path d="M1392.7656,778.875 Q1392.9219,778.6563 1393.1094,778.5469 Q1393.2969,778.4375 1393.5156,778.4375 Q1393.8906,778.4375 1394.125,778.6953 Q1394.3594,778.9531 1394.3594,779.5625 L1394.3594,781.0156 Q1394.3594,781.625 1394.125,781.8906 Q1393.8906,782.1563 1393.5156,782.1563 Q1393.1719,782.1563 1392.9688,781.9531 Q1392.7656,781.7656 1392.6563,781.25 Q1392.6094,780.8906 1392.4219,780.7031 Q1392.0938,780.3281 1391.4844,780.1094 Q1390.875,779.8906 1390.25,779.8906 Q1389.4844,779.8906 1388.8516,780.2188 Q1388.2188,780.5469 1387.7266,781.2969 Q1387.2344,782.0469 1387.2344,783.0781 L1387.2344,784.1719 Q1387.2344,785.4063 1388.125,786.2266 Q1389.0156,787.0469 1390.6094,787.0469 Q1391.5469,787.0469 1392.2031,786.7969 Q1392.5938,786.6406 1393.0156,786.2031 Q1393.2813,785.9375 1393.4297,785.8594 Q1393.5781,785.7813 1393.7813,785.7813 Q1394.1094,785.7813 1394.3672,786.0391 Q1394.625,786.2969 1394.625,786.6406 Q1394.625,786.9844 1394.2813,787.3906 Q1393.7813,787.9688 1392.9844,788.2969 Q1391.9063,788.75 1390.6094,788.75 Q1389.0938,788.75 1387.8906,788.125 Q1386.9063,787.625 1386.2188,786.5547 Q1385.5313,785.4844 1385.5313,784.2031 L1385.5313,783.0469 Q1385.5313,781.7188 1386.1484,780.5703 Q1386.7656,779.4219 1387.8594,778.8047 Q1388.9531,778.1875 1390.1875,778.1875 Q1390.9219,778.1875 1391.5703,778.3516 Q1392.2188,778.5156 1392.7656,778.875 Z "/>
        <text fill="#000000" font-family="sans-serif" font-size="12" lengthAdjust="spacingAndGlyphs" textLength="46" x="1404" y="787.9102">Weapon</text>
        <line style="stroke: #A80036; stroke-width: 1.5;" x1="1376" x2="1452" y1="799" y2="799"/>
        <line style="stroke: #A80036; stroke-width: 1.5;" x1="1376" x2="1452" y1="807" y2="807"/>
        <rect fill="#FEFECE" filter="url(#f1)" height="48" style="stroke: #A80036; stroke-width: 1.5;" width="60" x="139" y="164.5"/>
        <ellipse cx="154" cy="180.5" fill="#A9DCDF" rx="11" ry="11" style="stroke: #A80036; stroke-width: 1.0;"/>
        <path d="M156.1875,182.2656 L152.0469,182.2656 L151.625,183.2969 L152.0469,183.2969 Q152.6563,183.2969 152.9219,183.5313 Q153.1875,183.7656 153.1875,184.1563 Q153.1875,184.5313 152.9219,184.7656 Q152.6563,185 152.0469,185 L149.75,185 Q149.1406,185 148.8828,184.7656 Q148.625,184.5313 148.625,184.1406 Q148.625,183.7656 148.8984,183.5234 Q149.1719,183.2813 149.7969,183.2969 L152.4688,176.6406 L151.3594,176.6406 Q150.75,176.6406 150.4844,176.4063 Q150.2188,176.1719 150.2188,175.7813 Q150.2188,175.4063 150.4844,175.1719 Q150.75,174.9375 151.3594,174.9375 L155.0313,174.9375 L158.4219,183.2969 Q159.0156,183.2969 159.2031,183.4375 Q159.5938,183.7031 159.5938,184.1563 Q159.5938,184.5313 159.3359,184.7656 Q159.0781,185 158.4688,185 L156.1719,185 Q155.5625,185 155.2969,184.7656 Q155.0313,184.5313 155.0313,184.1406 Q155.0313,183.7656 155.2969,183.5313 Q155.5625,183.2969 156.1719,183.2969 L156.5938,183.2969 L156.1875,182.2656 Z M155.4688,180.5625 L154.1094,177.1875 L152.7344,180.5625 L155.4688,180.5625 Z "/>
        <text fill="#000000" font-family="sans-serif" font-size="12" font-style="italic" lengthAdjust="spacingAndGlyphs" textLength="28" x="168" y="185.4102">State</text>
        <line style="stroke: #A80036; stroke-width: 1.5;" x1="140" x2="198" y1="196.5" y2="196.5"/>
        <line style="stroke: #A80036; stroke-width: 1.5;" x1="140" x2="198" y1="204.5" y2="204.5"/>
        <rect fill="#FEFECE" filter="url(#f1)" height="48" style="stroke: #A80036; stroke-width: 1.5;" width="108" x="115" y="44"/>
        <ellipse cx="130" cy="60" fill="#ADD1B2" rx="11" ry="11" style="stroke: #A80036; stroke-width: 1.0;"/>
        <path d="M132.7656,55.875 Q132.9219,55.6563 133.1094,55.5469 Q133.2969,55.4375 133.5156,55.4375 Q133.8906,55.4375 134.125,55.6953 Q134.3594,55.9531 134.3594,56.5625 L134.3594,58.0156 Q134.3594,58.625 134.125,58.8906 Q133.8906,59.1563 133.5156,59.1563 Q133.1719,59.1563 132.9688,58.9531 Q132.7656,58.7656 132.6563,58.25 Q132.6094,57.8906 132.4219,57.7031 Q132.0938,57.3281 131.4844,57.1094 Q130.875,56.8906 130.25,56.8906 Q129.4844,56.8906 128.8516,57.2188 Q128.2188,57.5469 127.7266,58.2969 Q127.2344,59.0469 127.2344,60.0781 L127.2344,61.1719 Q127.2344,62.4063 128.125,63.2266 Q129.0156,64.0469 130.6094,64.0469 Q131.5469,64.0469 132.2031,63.7969 Q132.5938,63.6406 133.0156,63.2031 Q133.2813,62.9375 133.4297,62.8594 Q133.5781,62.7813 133.7813,62.7813 Q134.1094,62.7813 134.3672,63.0391 Q134.625,63.2969 134.625,63.6406 Q134.625,63.9844 134.2813,64.3906 Q133.7813,64.9688 132.9844,65.2969 Q131.9063,65.75 130.6094,65.75 Q129.0938,65.75 127.8906,65.125 Q126.9063,64.625 126.2188,63.5547 Q125.5313,62.4844 125.5313,61.2031 L125.5313,60.0469 Q125.5313,58.7188 126.1484,57.5703 Q126.7656,56.4219 127.8594,55.8047 Q128.9531,55.1875 130.1875,55.1875 Q130.9219,55.1875 131.5703,55.3516 Q132.2188,55.5156 132.7656,55.875 Z "/>
        <text fill="#000000" font-family="sans-serif" font-size="12" lengthAdjust="spacingAndGlyphs" textLength="76" x="144" y="64.9102">StateManager</text>
        <line style="stroke: #A80036; stroke-width: 1.5;" x1="116" x2="222" y1="76" y2="76"/>
        <line style="stroke: #A80036; stroke-width: 1.5;" x1="116" x2="222" y1="84" y2="84"/>
        <rect fill="#FEFECE" filter="url(#f1)" height="48" style="stroke: #A80036; stroke-width: 1.5;" width="104" x="30" y="285"/>
        <ellipse cx="45" cy="301" fill="#ADD1B2" rx="11" ry="11" style="stroke: #A80036; stroke-width: 1.0;"/>
        <path d="M47.7656,296.875 Q47.9219,296.6563 48.1094,296.5469 Q48.2969,296.4375 48.5156,296.4375 Q48.8906,296.4375 49.125,296.6953 Q49.3594,296.9531 49.3594,297.5625 L49.3594,299.0156 Q49.3594,299.625 49.125,299.8906 Q48.8906,300.1563 48.5156,300.1563 Q48.1719,300.1563 47.9688,299.9531 Q47.7656,299.7656 47.6563,299.25 Q47.6094,298.8906 47.4219,298.7031 Q47.0938,298.3281 46.4844,298.1094 Q45.875,297.8906 45.25,297.8906 Q44.4844,297.8906 43.8516,298.2188 Q43.2188,298.5469 42.7266,299.2969 Q42.2344,300.0469 42.2344,301.0781 L42.2344,302.1719 Q42.2344,303.4063 43.125,304.2266 Q44.0156,305.0469 45.6094,305.0469 Q46.5469,305.0469 47.2031,304.7969 Q47.5938,304.6406 48.0156,304.2031 Q48.2813,303.9375 48.4297,303.8594 Q48.5781,303.7813 48.7813,303.7813 Q49.1094,303.7813 49.3672,304.0391 Q49.625,304.2969 49.625,304.6406 Q49.625,304.9844 49.2813,305.3906 Q48.7813,305.9688 47.9844,306.2969 Q46.9063,306.75 45.6094,306.75 Q44.0938,306.75 42.8906,306.125 Q41.9063,305.625 41.2188,304.5547 Q40.5313,303.4844 40.5313,302.2031 L40.5313,301.0469 Q40.5313,299.7188 41.1484,298.5703 Q41.7656,297.4219 42.8594,296.8047 Q43.9531,296.1875 45.1875,296.1875 Q45.9219,296.1875 46.5703,296.3516 Q47.2188,296.5156 47.7656,296.875 Z "/>
        <text fill="#000000" font-family="sans-serif" font-size="12" lengthAdjust="spacingAndGlyphs" textLength="72" x="59" y="305.9102">CombatState</text>
        <line style="stroke: #A80036; stroke-width: 1.5;" x1="31" x2="133" y1="317" y2="317"/>
        <line style="stroke: #A80036; stroke-width: 1.5;" x1="31" x2="133" y1="325" y2="325"/>
        <rect fill="#FEFECE" filter="url(#f1)" height="48" style="stroke: #A80036; stroke-width: 1.5;" width="116" x="204" y="285"/>
        <ellipse cx="219" cy="301" fill="#ADD1B2" rx="11" ry="11" style="stroke: #A80036; stroke-width: 1.0;"/>
        <path d="M221.7656,296.875 Q221.9219,296.6563 222.1094,296.5469 Q222.2969,296.4375 222.5156,296.4375 Q222.8906,296.4375 223.125,296.6953 Q223.3594,296.9531 223.3594,297.5625 L223.3594,299.0156 Q223.3594,299.625 223.125,299.8906 Q222.8906,300.1563 222.5156,300.1563 Q222.1719,300.1563 221.9688,299.9531 Q221.7656,299.7656 221.6563,299.25 Q221.6094,298.8906 221.4219,298.7031 Q221.0938,298.3281 220.4844,298.1094 Q219.875,297.8906 219.25,297.8906 Q218.4844,297.8906 217.8516,298.2188 Q217.2188,298.5469 216.7266,299.2969 Q216.2344,300.0469 216.2344,301.0781 L216.2344,302.1719 Q216.2344,303.4063 217.125,304.2266 Q218.0156,305.0469 219.6094,305.0469 Q220.5469,305.0469 221.2031,304.7969 Q221.5938,304.6406 222.0156,304.2031 Q222.2813,303.9375 222.4297,303.8594 Q222.5781,303.7813 222.7813,303.7813 Q223.1094,303.7813 223.3672,304.0391 Q223.625,304.2969 223.625,304.6406 Q223.625,304.9844 223.2813,305.3906 Q222.7813,305.9688 221.9844,306.2969 Q220.9063,306.75 219.6094,306.75 Q218.0938,306.75 216.8906,306.125 Q215.9063,305.625 215.2188,304.5547 Q214.5313,303.4844 214.5313,302.2031 L214.5313,301.0469 Q214.5313,299.7188 215.1484,298.5703 Q215.7656,297.4219 216.8594,296.8047 Q217.9531,296.1875 219.1875,296.1875 Q219.9219,296.1875 220.5703,296.3516 Q221.2188,296.5156 221.7656,296.875 Z "/>
        <text fill="#000000" font-family="sans-serif" font-size="12" lengthAdjust="spacingAndGlyphs" textLength="84" x="233" y="305.9102">MainMenuState</text>
        <line style="stroke: #A80036; stroke-width: 1.5;" x1="205" x2="319" y1="317" y2="317"/>
        <line style="stroke: #A80036; stroke-width: 1.5;" x1="205" x2="319" y1="325" y2="325"/>
        <rect fill="#FEFECE" filter="url(#f1)" height="48" style="stroke: #A80036; stroke-width: 1.5;" width="83" x="40.5" y="405.5"/>
        <ellipse cx="55.5" cy="421.5" fill="#ADD1B2" rx="11" ry="11" style="stroke: #A80036; stroke-width: 1.0;"/>
        <path d="M58.2656,417.375 Q58.4219,417.1563 58.6094,417.0469 Q58.7969,416.9375 59.0156,416.9375 Q59.3906,416.9375 59.625,417.1953 Q59.8594,417.4531 59.8594,418.0625 L59.8594,419.5156 Q59.8594,420.125 59.625,420.3906 Q59.3906,420.6563 59.0156,420.6563 Q58.6719,420.6563 58.4688,420.4531 Q58.2656,420.2656 58.1563,419.75 Q58.1094,419.3906 57.9219,419.2031 Q57.5938,418.8281 56.9844,418.6094 Q56.375,418.3906 55.75,418.3906 Q54.9844,418.3906 54.3516,418.7188 Q53.7188,419.0469 53.2266,419.7969 Q52.7344,420.5469 52.7344,421.5781 L52.7344,422.6719 Q52.7344,423.9063 53.625,424.7266 Q54.5156,425.5469 56.1094,425.5469 Q57.0469,425.5469 57.7031,425.2969 Q58.0938,425.1406 58.5156,424.7031 Q58.7813,424.4375 58.9297,424.3594 Q59.0781,424.2813 59.2813,424.2813 Q59.6094,424.2813 59.8672,424.5391 Q60.125,424.7969 60.125,425.1406 Q60.125,425.4844 59.7813,425.8906 Q59.2813,426.4688 58.4844,426.7969 Q57.4063,427.25 56.1094,427.25 Q54.5938,427.25 53.3906,426.625 Q52.4063,426.125 51.7188,425.0547 Q51.0313,423.9844 51.0313,422.7031 L51.0313,421.5469 Q51.0313,420.2188 51.6484,419.0703 Q52.2656,417.9219 53.3594,417.3047 Q54.4531,416.6875 55.6875,416.6875 Q56.4219,416.6875 57.0703,416.8516 Q57.7188,417.0156 58.2656,417.375 Z "/>
        <text fill="#000000" font-family="sans-serif" font-size="12" lengthAdjust="spacingAndGlyphs" textLength="51" x="69.5" y="426.4102">MapState</text>
        <line style="stroke: #A80036; stroke-width: 1.5;" x1="41.5" x2="122.5" y1="437.5" y2="437.5"/>
        <line style="stroke: #A80036; stroke-width: 1.5;" x1="41.5" x2="122.5" y1="445.5" y2="445.5"/>
        <rect fill="#FEFECE" filter="url(#f1)" height="48" style="stroke: #A80036; stroke-width: 1.5;" width="96" x="159" y="405.5"/>
        <ellipse cx="174" cy="421.5" fill="#ADD1B2" rx="11" ry="11" style="stroke: #A80036; stroke-width: 1.0;"/>
        <path d="M176.7656,417.375 Q176.9219,417.1563 177.1094,417.0469 Q177.2969,416.9375 177.5156,416.9375 Q177.8906,416.9375 178.125,417.1953 Q178.3594,417.4531 178.3594,418.0625 L178.3594,419.5156 Q178.3594,420.125 178.125,420.3906 Q177.8906,420.6563 177.5156,420.6563 Q177.1719,420.6563 176.9688,420.4531 Q176.7656,420.2656 176.6563,419.75 Q176.6094,419.3906 176.4219,419.2031 Q176.0938,418.8281 175.4844,418.6094 Q174.875,418.3906 174.25,418.3906 Q173.4844,418.3906 172.8516,418.7188 Q172.2188,419.0469 171.7266,419.7969 Q171.2344,420.5469 171.2344,421.5781 L171.2344,422.6719 Q171.2344,423.9063 172.125,424.7266 Q173.0156,425.5469 174.6094,425.5469 Q175.5469,425.5469 176.2031,425.2969 Q176.5938,425.1406 177.0156,424.7031 Q177.2813,424.4375 177.4297,424.3594 Q177.5781,424.2813 177.7813,424.2813 Q178.1094,424.2813 178.3672,424.5391 Q178.625,424.7969 178.625,425.1406 Q178.625,425.4844 178.2813,425.8906 Q177.7813,426.4688 176.9844,426.7969 Q175.9063,427.25 174.6094,427.25 Q173.0938,427.25 171.8906,426.625 Q170.9063,426.125 170.2188,425.0547 Q169.5313,423.9844 169.5313,422.7031 L169.5313,421.5469 Q169.5313,420.2188 170.1484,419.0703 Q170.7656,417.9219 171.8594,417.3047 Q172.9531,416.6875 174.1875,416.6875 Q174.9219,416.6875 175.5703,416.8516 Q176.2188,417.0156 176.7656,417.375 Z "/>
        <text fill="#000000" font-family="sans-serif" font-size="12" lengthAdjust="spacingAndGlyphs" textLength="64" x="188" y="426.4102">PauseState</text>
        <line style="stroke: #A80036; stroke-width: 1.5;" x1="160" x2="254" y1="437.5" y2="437.5"/>
        <line style="stroke: #A80036; stroke-width: 1.5;" x1="160" x2="254" y1="445.5" y2="445.5"/>
        <polygon fill="#FFFFFF" filter="url(#f1)" points="749,526,825,526,832,549.6094,839,549.6094,839,598.8281,749,598.8281,749,526" style="stroke: #000000; stroke-width: 2.0;"/>
        <line style="stroke: #000000; stroke-width: 2.0;" x1="749" x2="832" y1="549.6094" y2="549.6094"/>
        <text fill="#000000" font-family="sans-serif" font-size="14" font-weight="bold" lengthAdjust="spacingAndGlyphs" textLength="70" x="752" y="543.5332">Worldmap</text>
        <polygon fill="#FFFFFF" filter="url(#f1)" points="344.5,393,413.5,393,420.5,416.6094,427.5,416.6094,427.5,465.8281,344.5,465.8281,344.5,393" style="stroke: #000000; stroke-width: 2.0;"/>
        <line style="stroke: #000000; stroke-width: 2.0;" x1="344.5" x2="420.5" y1="416.6094" y2="416.6094"/>
        <text fill="#000000" font-family="sans-serif" font-size="14" font-weight="bold" lengthAdjust="spacingAndGlyphs" textLength="63" x="347.5" y="410.5332">Graphics</text>
        <polygon fill="#DDDDDD" filter="url(#f1)" points="344,152,384,152,391,175.6094,398,175.6094,398,224.8281,344,224.8281,344,152" style="stroke: #000000; stroke-width: 2.0;"/>
        <line style="stroke: #000000; stroke-width: 2.0;" x1="344" x2="391" y1="175.6094" y2="175.6094"/>
        <text fill="#000000" font-family="sans-serif" font-size="14" font-weight="bold" lengthAdjust="spacingAndGlyphs" textLength="34" x="347" y="169.5332">Main</text>
        <path d="M1003.474,726.057 C1008.56,739.8891 1014.03,754.7609 1018.42,766.6784 " fill="none" style="stroke: #A80036; stroke-width: 1.0;"/>
        <polygon fill="none" points="996.799,728.187,996.462,707,1009.94,723.353,996.799,728.187" style="stroke: #A80036; stroke-width: 1.0;"/>
        <path d="M962.254,724.134 C953.038,738.4992 942.962,754.2066 934.961,766.6784 " fill="none" style="stroke: #A80036; stroke-width: 1.0;"/>
        <polygon fill="none" points="956.554,720.055,973.245,707,968.338,727.614,956.554,720.055" style="stroke: #A80036; stroke-width: 1.0;"/>
        <path d="M935.366,604.089 C924.703,622.402 912.497,643.364 903.434,658.929 " fill="none" style="stroke: #A80036; stroke-width: 1.0;"/>
        <polygon fill="none" points="929.419,600.39,945.532,586.629,941.518,607.435,929.419,600.39" style="stroke: #A80036; stroke-width: 1.0;"/>
        <path d="M967.753,599.267 C971.381,614.09 975.581,631.252 979.212,646.09 " fill="none" style="stroke: #A80036; stroke-width: 1.0;"/>
        <polygon fill="#A80036" points="982.354,658.929,984.1001,649.2362,981.1655,654.0723,976.3294,651.1377,982.354,658.929" style="stroke: #A80036; stroke-width: 1.0;"/>
        <line style="stroke: #A80036; stroke-width: 1.0;" x1="981.1655" x2="979.2635" y1="654.0723" y2="646.3015"/>
        <polygon fill="none" points="964.66,586.629,962.2008,593.4078,967.5124,598.2851,969.9715,591.5062,964.66,586.629" style="stroke: #A80036; stroke-width: 1.0;"/>
        <path d="M985.478,586.766 C999.793,599.563 1017.63,615.873 1033,631 C1040.74,638.624 1048.93,647.141 1056.31,654.998 " fill="none" style="stroke: #A80036; stroke-width: 1.0; stroke-dasharray: 7.0,7.0;"/>
        <polygon fill="#A80036" points="1059.86,658.795,1056.6239,649.493,1056.4408,655.1469,1050.7869,654.9637,1059.86,658.795" style="stroke: #A80036; stroke-width: 1.0;"/>
        <path d="M552.915,469.521 C535.69,491.863 514.654,519.147 499.986,538.172 " fill="none" style="stroke: #A80036; stroke-width: 1.0;"/>
        <polygon fill="none" points="547.42,465.184,565.176,453.619,558.508,473.732,547.42,465.184" style="stroke: #A80036; stroke-width: 1.0;"/>
        <path d="M583,473.849 C583,495.307 583,520.359 583,538.172 " fill="none" style="stroke: #A80036; stroke-width: 1.0;"/>
        <polygon fill="none" points="576,473.619,583,453.619,590,473.619,576,473.619" style="stroke: #A80036; stroke-width: 1.0;"/>
        <path d="M612.137,469.85 C628.635,492.13 648.708,519.24 662.726,538.172 " fill="none" style="stroke: #A80036; stroke-width: 1.0;"/>
        <polygon fill="none" points="606.394,473.858,600.118,453.619,617.646,465.526,606.394,473.858" style="stroke: #A80036; stroke-width: 1.0;"/>
        <path d="M1206.86,724.613 C1198.4,738.8479 1189.19,754.3452 1181.86,766.6784 " fill="none" style="stroke: #A80036; stroke-width: 1.0;"/>
        <polygon fill="none" points="1201.09,720.617,1217.33,707,1213.13,727.769,1201.09,720.617" style="stroke: #A80036; stroke-width: 1.0;"/>
        <path d="M1253.1,725.094 C1260.68,739.1958 1268.9,754.4838 1275.46,766.6784 " fill="none" style="stroke: #A80036; stroke-width: 1.0;"/>
        <polygon fill="none" points="1246.68,727.93,1243.37,707,1259.01,721.3,1246.68,727.93" style="stroke: #A80036; stroke-width: 1.0;"/>
        <path d="M1276.68,710.457 C1306.9,727.965 1346.12,750.6806 1374.9,767.3523 " fill="none" style="stroke: #A80036; stroke-width: 1.0;"/>
        <polygon fill="none" points="1272.99,716.412,1259.19,700.33,1280.01,704.297,1272.99,716.412" style="stroke: #A80036; stroke-width: 1.0;"/>
        <path d="M169,105.327 C169,124.576 169,147.642 169,164.429 " fill="none" style="stroke: #A80036; stroke-width: 1.0;"/>
        <polygon fill="none" points="169,92.129,165,98.129,169,104.129,173,98.129,169,92.129" style="stroke: #A80036; stroke-width: 1.0;"/>
        <path d="M169,232.924 C169,240.83 169,249.143 169,257.24 " fill="none" style="stroke: #A80036; stroke-width: 1.0;"/>
        <polygon fill="none" points="162,232.629,169,212.629,176,232.629,162,232.629" style="stroke: #A80036; stroke-width: 1.0;"/>
        <path d="M340.181,102.569 C344.338,114.025 349.072,127.07 353.56,139.439 " fill="none" style="stroke: #A80036; stroke-width: 1.0;"/>
        <polygon fill="#A80036" points="358.093,151.931,359.8065,144.9264,353.9997,140.6507,352.2863,147.6553,358.093,151.931" style="stroke: #A80036; stroke-width: 1.0;"/>
        <polygon fill="#A80036" points="335.615,89.986,334.9245,99.8106,337.3204,94.6862,342.4448,97.082,335.615,89.986" style="stroke: #A80036; stroke-width: 1.0;"/>
        <line style="stroke: #A80036; stroke-width: 1.0;" x1="337.3204" x2="340.0495" y1="94.6862" y2="102.206"/>
        <path d="M340.693,73.303 C416.469,99.618 812.939,246.177 1023.66,500.259 " fill="none" style="stroke: #A80036; stroke-width: 1.0;"/>
        <polygon fill="#A80036" points="1032,510.5,1029.4196,500.9952,1028.8432,506.6226,1023.2157,506.0461,1032,510.5" style="stroke: #A80036; stroke-width: 1.0;"/>
        <line style="stroke: #A80036; stroke-width: 1.0;" x1="1028.8432" x2="1023.79" y1="506.6226" y2="500.422"/>
        <polygon fill="none" points="336,71.028,339.6541,77.2447,346.798,76.2628,343.1439,70.0461,336,71.028" style="stroke: #A80036; stroke-width: 1.0;"/>
        <path d="M327.822,373.416 C425.188,374.507 507.733,328.45 638.265,375.751 " fill="none" style="stroke: #A80036; stroke-width: 1.0;"/>
        <polygon fill="#A80036" points="643,377.5,635.9441,370.6287,638.3099,375.7671,633.1715,378.1329,643,377.5" style="stroke: #A80036; stroke-width: 1.0;"/>
        <path d="M327.789,372.885 C330.472,374.285 333.207,375.819 336,377.5 C341.587,380.863 346.989,384.997 352.046,389.443 " fill="none" style="stroke: #A80036; stroke-width: 1.0;"/>
        <polygon fill="#A80036" points="355.843,392.896,351.8751,383.8818,352.1436,389.5323,346.4931,389.8008,355.843,392.896" style="stroke: #A80036; stroke-width: 1.0;"/>
        <path d="M721.506,442.791 C732.391,460.615 753.058,494.457 769.549,521.462 " fill="none" style="stroke: #A80036; stroke-width: 1.0;"/>
        <polygon fill="#A80036" points="772.305,525.974,771.0284,516.2082,769.6992,521.7067,764.2007,520.3775,772.305,525.974" style="stroke: #A80036; stroke-width: 1.0;"/>
        <path d="M726.81,433.548 C778.161,445.786 968.784,491.401 1019.6,506.221 " fill="none" style="stroke: #A80036; stroke-width: 1.0;"/>
        <polygon fill="#A80036" points="1032,510.5,1024.7913,503.7892,1027.2721,508.8731,1022.1882,511.3539,1032,510.5" style="stroke: #A80036; stroke-width: 1.0;"/>
        <line style="stroke: #A80036; stroke-width: 1.0;" x1="1027.2721" x2="1019.71" y1="508.8731" y2="506.26"/>
        <polygon fill="none" points="722,431.513,725.9671,437.5348,733.0515,436.1889,729.0844,430.1671,722,431.513" style="stroke: #A80036; stroke-width: 1.0;"/>
        <path d="M1131.84,569.275 C1175.87,576.14 1228.83,590.871 1267.16,622.25 " fill="none" style="stroke: #A80036; stroke-width: 1.0;"/>
        <polygon fill="#A80036" points="1277,631,1272.9355,622.0289,1273.2647,627.6762,1267.6174,628.0054,1277,631" style="stroke: #A80036; stroke-width: 1.0;"/>
        <line style="stroke: #A80036; stroke-width: 1.0;" x1="1273.2647" x2="1267.285" y1="627.6762" y2="622.3605"/>
        <polygon fill="none" points="1118.79,567.425,1124.1677,572.2291,1130.6707,569.1128,1125.293,564.3087,1118.79,567.425" style="stroke: #A80036; stroke-width: 1.0;"/>
    </g>
</svg>
